# xmcd
#
# Track frame offsets:
#	150
#	14218
#	27351
#	39510
#	52974
#	64712
#	79250
#	89378
#	101063
#	114760
#	125797
#	138250
#	151195
#	160794
#	171662
#	183324
#	197683
#	208263
#	220971
#	235679
#	247666
#	258961
#	271687
#	283159
#
# Disc length: 3908 seconds
#
# Revision: 0
# Processed by: cddbd v1.5.2PL0 Copyright (c) Steve Scherf et al.
# Submitted via: EasyCDDAExtractor 2010.6.0.0
#
DISCID=530f4218
DTITLE=Various Artist - La Fiesta Del 40 Tangos Para Baila
DYEAR=2011
DGENRE=Tango
TTITLE0=Ricardo Tanturi - Enrique Campos - Asi Se Canta - Tango
TTITLE1=Ricardo Tanturi - Enrique Campos - Que Bien Te Queda - Tango
TTITLE2=Ricardo Tanturi - Enrique Campos - Sombrerito - Tango
TTITLE3=Ricardo Tanturi - Enrique Campos - Igual Que Un Bandoneon - Tango
TTITLE4=Lucio Demare - Instrumental - Tinta Verde - Tango
TTITLE5=Lucio Demare - Instrumental - El Chupete - Tango
TTITLE6=Lucio Demare - Instrumental - Color De Rosa - Tango
TTITLE7=Lucio Demare - Instrumental - La Racha - Tango
TTITLE8=Francisco Canaro - Instrumental - Vibraciones Del Alma - Valse
TTITLE9=Francisco Canaro - Francisco Amor - En La Noche Azul - Valse
TTITLE10=Francisco Canaro - Eduardo Adriàn - Claro De Luna - Valse
TTITLE11=Francisco Canaro - Instrumental - Corazon De Oro - Valse
TTITLE12=Rodolfo Biagi - Instrumental - A La Gran Muñeca - Tango
TTITLE13=Rodolfo Biagi - Instrumental - El Recodo - Tango
TTITLE14=Rodolfo Biagi - Instrumental - El Irresistible - Tango
TTITLE15=Rodolfo Biagi - Instrumental - Racing Club - Tango
TTITLE16=Carlos Di Sarli - Roberto Rufino - Zorro Plateado - Tango
TTITLE17=Carlos Di Sarli - Roberto Rufino - Bien Frappe - Tango
TTITLE18=Carlos Di Sarli - Roberto Rufino - Anselmo Acuña - Tango
TTITLE19=Carlos Di Sarli - Roberto Rufino - Boedo Y San Juan - Tango
TTITLE20=Angel D'agostino - Angel Vargas - El Porteñito - Milonga
TTITLE21=Angel D'agostino - Angel Vargas - Asi Me Gusta A Mi - Milonga
TTITLE22=Angel D'agostino - Angel Vargas - Compadreado - Milonga
TTITLE23=Angel D'agostino - Angel Vargas - El Morcho Y El Oriental - Milonga
EXTD=
EXTT0=
EXTT1=
EXTT2=
EXTT3=
EXTT4=
EXTT5=
EXTT6=
EXTT7=
EXTT8=
EXTT9=
EXTT10=
EXTT11=
EXTT12=
EXTT13=
EXTT14=
EXTT15=
EXTT16=
EXTT17=
EXTT18=
EXTT19=
EXTT20=
EXTT21=
EXTT22=
EXTT23=
PLAYORDER=
